<?xml version="1.0" encoding="iso-8859-1"?>
<!-- Generator: Adobe Illustrator 18.0.0, SVG Export Plug-In . SVG Version: 6.00 Build 0)  -->
<!DOCTYPE svg PUBLIC "-//W3C//DTD SVG 1.1//EN" "http://www.w3.org/Graphics/SVG/1.1/DTD/svg11.dtd">
<svg version="1.1" id="Capa_1" xmlns="http://www.w3.org/2000/svg" xmlns:xlink="http://www.w3.org/1999/xlink" x="0px" y="0px"
	 viewBox="0 0 322.906 322.906" style="enable-background:new 0 0 322.906 322.906;" xml:space="preserve">
<g>
	<path d="M135.143,214.696c0,14.53,11.779,26.309,26.31,26.309c14.53,0,26.31-11.779,26.31-26.309c0-14.53-26.31-56.31-26.31-56.31
		S135.143,200.166,135.143,214.696z"/>
	<path d="M297.178,0H25.729c0,24.374,38.843,45.055,92.725,52.369v34.173C72.871,103.922,40.4,148.085,40.4,199.696
		c0,35.808,15.634,68.029,40.428,90.212H39.775v32.998h243.356v-32.998h-41.053c24.794-22.183,40.428-54.404,40.428-90.212
		c0-51.611-32.471-95.774-78.053-113.154V52.369C258.334,45.055,297.178,24.374,297.178,0z M240.4,199.696
		c0,43.532-35.416,78.947-78.947,78.947c-43.532,0-78.947-35.415-78.947-78.947c0-43.532,35.416-78.947,78.947-78.947
		C204.985,120.749,240.4,156.165,240.4,199.696z"/>
</g>
<g>
</g>
<g>
</g>
<g>
</g>
<g>
</g>
<g>
</g>
<g>
</g>
<g>
</g>
<g>
</g>
<g>
</g>
<g>
</g>
<g>
</g>
<g>
</g>
<g>
</g>
<g>
</g>
<g>
</g>
</svg>
